<svg width="32" height="32" viewBox="0 0 32 32" fill="none" xmlns="http://www.w3.org/2000/svg">
<rect width="32" height="32" fill="white"/>
<path d="M29.5669 17.7372H20.0932C19.7432 17.7372 19.5381 18.1329 19.7389 18.4208L24.5525 25.3213C24.6896 25.5176 24.6421 25.7886 24.446 25.9263L22.3194 27.4214C22.1238 27.559 21.8538 27.5113 21.7167 27.3145L16.1363 19.3147C15.9732 19.0806 15.6331 19.0658 15.4505 19.2847L11.2829 24.2706C11.1293 24.4543 10.8563 24.4782 10.6732 24.324L8.68461 22.6492C8.50158 22.495 8.47778 22.2209 8.63139 22.0372L11.629 18.4512C11.8653 18.1685 11.6649 17.7376 11.2976 17.7376H2.30769C2.06884 17.7376 1.875 17.543 1.875 17.3033V14.6972C1.875 14.4574 2.06884 14.2628 2.30769 14.2628H11.7813C12.1314 14.2628 12.3365 13.8671 12.1357 13.5792L7.32208 6.6787C7.18492 6.48238 7.23251 6.21135 7.42852 6.07366L9.55517 4.57864C9.75074 4.44095 10.0207 4.48873 10.1579 4.68549L15.7382 12.6853C15.9014 12.9194 16.2415 12.9342 16.4241 12.7153L20.5917 7.72939C20.7453 7.54566 21.0183 7.52177 21.2013 7.67596L23.19 9.35081C23.373 9.505 23.3968 9.77907 23.2432 9.9628L20.2455 13.5488C20.0093 13.8315 20.2096 14.2624 20.577 14.2624H29.5673C29.8062 14.2624 30 14.457 30 14.6967V17.3028C30 17.5426 29.8062 17.7372 29.5673 17.7372H29.5669Z" fill="url(#paint0_linear_337_165)"/>
<defs>
<linearGradient id="paint0_linear_337_165" x1="1.875" y1="16" x2="30" y2="16" gradientUnits="userSpaceOnUse">
<stop stop-color="#00BC7D"/>
<stop offset="1" stop-color="#00BBA7"/>
</linearGradient>
</defs>
</svg>
