<svg width="256" height="256" viewBox="0 0 256 256" fill="none" xmlns="http://www.w3.org/2000/svg">
<rect width="256" height="256" fill="white"/>
<path d="M236.535 141.897H160.746C157.945 141.897 156.305 145.063 157.911 147.367L196.42 202.57C197.517 204.141 197.136 206.309 195.568 207.411L178.555 219.371C176.991 220.472 174.831 220.09 173.733 218.516L129.091 154.518C127.786 152.645 125.065 152.527 123.604 154.278L90.2631 194.165C89.0342 195.635 86.85 195.826 85.3858 194.592L69.4769 181.194C68.0126 179.96 67.8223 177.767 69.0511 176.298L93.0323 147.61C94.9222 145.348 93.3196 141.901 90.3808 141.901H18.4615C16.5507 141.901 15 140.344 15 138.426V117.577C15 115.659 16.5507 114.103 18.4615 114.103H94.2507C97.051 114.103 98.6918 110.937 97.0857 108.633L58.5766 53.4296C57.4793 51.859 57.8601 49.6908 59.4282 48.5893L76.4414 36.6291C78.006 35.5276 80.1659 35.9098 81.2632 37.4839L125.906 101.482C127.211 103.355 129.932 103.473 131.392 101.722L164.733 61.8351C165.962 60.3653 168.146 60.1742 169.611 61.4077L185.52 74.8064C186.984 76.04 187.174 78.2326 185.945 79.7024L161.964 108.39C160.074 110.652 161.677 114.099 164.616 114.099H236.539C238.449 114.099 240 115.656 240 117.574V138.423C240 140.341 238.449 141.897 236.539 141.897H236.535Z" fill="url(#paint0_linear_337_164)"/>
<defs>
<linearGradient id="paint0_linear_337_164" x1="15" y1="128" x2="240" y2="128" gradientUnits="userSpaceOnUse">
<stop stop-color="#00BC7D"/>
<stop offset="1" stop-color="#00BBA7"/>
</linearGradient>
</defs>
</svg>
