<svg width="908" height="151" viewBox="0 0 908 151" fill="none" xmlns="http://www.w3.org/2000/svg">
<g clip-path="url(#clip0_337_157)">
<path d="M871.26 120.491C863.36 120.491 856.46 118.841 850.56 115.541C844.76 112.141 840.21 107.541 836.91 101.741C833.71 95.8411 832.11 89.0911 832.11 81.4911C832.11 73.8911 833.76 67.1911 837.06 61.3911C840.36 55.4911 844.96 50.8911 850.86 47.5911C856.76 44.1911 863.56 42.4911 871.26 42.4911C880.86 42.4911 888.91 44.9911 895.41 49.9911C902.01 54.9911 906.21 61.8911 908.01 70.6911H886.56C885.76 67.0911 883.91 64.2911 881.01 62.2911C878.21 60.2911 874.91 59.2911 871.11 59.2911C867.61 59.2911 864.46 60.1911 861.66 61.9911C858.96 63.6911 856.81 66.1911 855.21 69.4911C853.61 72.7911 852.81 76.7911 852.81 81.4911C852.81 84.8911 853.26 87.9411 854.16 90.6411C855.06 93.3411 856.31 95.6411 857.91 97.5411C859.51 99.4411 861.41 100.891 863.61 101.891C865.91 102.791 868.41 103.241 871.11 103.241C873.71 103.241 876.06 102.841 878.16 102.041C880.26 101.141 882.06 99.8911 883.56 98.2911C885.06 96.5911 886.06 94.5911 886.56 92.2911H908.01C906.21 100.891 902.01 107.741 895.41 112.841C888.91 117.941 880.86 120.491 871.26 120.491Z" fill="#090910"/>
<path d="M795.257 120.491C787.657 120.491 780.907 118.891 775.007 115.691C769.207 112.491 764.657 107.991 761.357 102.191C758.057 96.3911 756.407 89.7411 756.407 82.2411C756.407 74.4411 758.007 67.5911 761.207 61.6911C764.507 55.6911 769.057 50.9911 774.857 47.5911C780.757 44.1911 787.557 42.4911 795.257 42.4911C802.757 42.4911 809.307 44.0911 814.907 47.2911C820.507 50.4911 824.907 54.8911 828.107 60.4911C831.307 65.9911 832.907 72.2411 832.907 79.2411C832.907 80.2411 832.857 81.3911 832.757 82.6911C832.757 83.8911 832.707 85.1411 832.607 86.4411H770.807V73.9911H812.357C812.057 69.2911 810.307 65.5411 807.107 62.7411C804.007 59.9411 800.107 58.5411 795.407 58.5411C791.907 58.5411 788.707 59.3411 785.807 60.9411C782.907 62.4411 780.607 64.7911 778.907 67.9911C777.207 71.0911 776.357 75.0411 776.357 79.8411V84.1911C776.357 88.2911 777.157 91.8411 778.757 94.8411C780.357 97.7411 782.557 99.9911 785.357 101.591C788.257 103.191 791.507 103.991 795.107 103.991C798.807 103.991 801.907 103.191 804.407 101.591C806.907 99.8911 808.807 97.7411 810.107 95.1411H830.657C829.257 99.8411 826.907 104.141 823.607 108.041C820.307 111.841 816.257 114.891 811.457 117.191C806.657 119.391 801.257 120.491 795.257 120.491Z" fill="#090910"/>
<path d="M747.615 118.691C742.315 118.691 737.665 117.891 733.665 116.291C729.765 114.591 726.715 111.841 724.515 108.041C722.315 104.141 721.215 98.8411 721.215 92.1411V60.4911H708.465V44.2911H721.215L723.465 24.0411H741.465V44.2911H761.265V60.4911H741.465V92.4411C741.465 96.0411 742.215 98.5411 743.715 99.9411C745.215 101.241 747.765 101.891 751.365 101.891H760.815V118.691H747.615Z" fill="#090910"/>
<path d="M665.242 120.491C659.342 120.491 654.442 119.491 650.542 117.491C646.742 115.491 643.942 112.791 642.142 109.391C640.342 105.991 639.442 102.241 639.442 98.1411C639.442 93.5411 640.592 89.4911 642.892 85.9911C645.292 82.4911 648.892 79.7911 653.692 77.8911C658.492 75.8911 664.542 74.8911 671.842 74.8911H690.592C690.592 71.1911 690.042 68.1411 688.942 65.7411C687.942 63.3411 686.342 61.5411 684.142 60.3411C682.042 59.1411 679.342 58.5411 676.042 58.5411C672.142 58.5411 668.792 59.4411 665.992 61.2411C663.292 62.9411 661.592 65.6411 660.892 69.3411H641.242C641.842 63.8411 643.642 59.0911 646.642 55.0911C649.742 51.0911 653.792 47.9911 658.792 45.7911C663.892 43.5911 669.642 42.4911 676.042 42.4911C683.242 42.4911 689.442 43.6911 694.642 46.0911C699.842 48.3911 703.842 51.8411 706.642 56.4411C709.442 60.9411 710.842 66.4411 710.842 72.9411V118.691H694.042L691.942 107.141H691.342C689.742 109.341 687.992 111.291 686.092 112.991C684.292 114.691 682.292 116.091 680.092 117.191C677.892 118.291 675.542 119.091 673.042 119.591C670.542 120.191 667.942 120.491 665.242 120.491ZM671.842 104.891C674.642 104.891 677.042 104.441 679.042 103.541C681.142 102.541 682.942 101.241 684.442 99.6411C685.942 98.0411 687.092 96.1911 687.892 94.0911C688.792 91.8911 689.392 89.6411 689.692 87.3411H674.092C670.992 87.3411 668.442 87.7411 666.442 88.5411C664.542 89.2411 663.142 90.2911 662.242 91.6911C661.342 92.9911 660.892 94.5411 660.892 96.3411C660.892 98.1411 661.342 99.6911 662.242 100.991C663.142 102.291 664.442 103.291 666.142 103.991C667.842 104.591 669.742 104.891 671.842 104.891Z" fill="#090910"/>
<path d="M598.284 150.491C591.184 150.491 584.934 149.641 579.534 147.941C574.234 146.241 570.084 143.691 567.084 140.291C564.184 136.991 562.734 132.991 562.734 128.291C562.734 124.791 563.634 121.591 565.434 118.691C567.234 115.691 569.884 112.991 573.384 110.591C576.884 108.091 581.184 105.941 586.284 104.141L593.634 114.191C589.234 115.691 586.034 117.491 584.034 119.591C582.034 121.691 581.034 124.091 581.034 126.791C581.034 128.791 581.734 130.491 583.134 131.891C584.634 133.291 586.684 134.341 589.284 135.041C591.884 135.841 594.884 136.241 598.284 136.241C601.684 136.241 604.534 135.841 606.834 135.041C609.134 134.241 610.884 133.091 612.084 131.591C613.284 130.191 613.884 128.541 613.884 126.641C613.884 123.941 612.934 121.841 611.034 120.341C609.134 118.941 605.434 118.041 599.934 117.641C594.834 117.241 590.334 116.691 586.434 115.991C582.534 115.191 579.084 114.291 576.084 113.291C573.184 112.191 570.684 110.991 568.584 109.691C566.484 108.391 564.784 107.091 563.484 105.791V102.341L579.534 85.8411L591.384 90.3411L575.184 108.341L580.584 99.3411C581.584 99.7411 582.634 100.141 583.734 100.541C584.834 100.941 586.184 101.341 587.784 101.741C589.484 102.141 591.584 102.541 594.084 102.941C596.684 103.241 599.934 103.591 603.834 103.991C610.434 104.491 615.834 105.641 620.034 107.441C624.234 109.241 627.334 111.691 629.334 114.791C631.334 117.891 632.334 121.691 632.334 126.191C632.334 130.091 631.084 133.891 628.584 137.591C626.184 141.391 622.484 144.491 617.484 146.891C612.484 149.291 606.084 150.491 598.284 150.491ZM598.434 96.6411C592.134 96.6411 586.684 95.4411 582.084 93.0411C577.584 90.6411 574.084 87.3911 571.584 83.2911C569.184 79.1911 567.984 74.6411 567.984 69.6411C567.984 64.6411 569.184 60.0911 571.584 55.9911C574.084 51.8911 577.584 48.6411 582.084 46.2411C586.684 43.7411 592.134 42.4911 598.434 42.4911C604.734 42.4911 610.134 43.7411 614.634 46.2411C619.234 48.6411 622.734 51.8911 625.134 55.9911C627.534 60.0911 628.734 64.6411 628.734 69.6411C628.734 74.6411 627.534 79.1911 625.134 83.2911C622.734 87.3911 619.234 90.6411 614.634 93.0411C610.134 95.4411 604.734 96.6411 598.434 96.6411ZM598.284 81.9411C602.284 81.9411 605.484 80.9411 607.884 78.9411C610.384 76.8411 611.634 73.7411 611.634 69.6411C611.634 65.5411 610.384 62.4911 607.884 60.4911C605.484 58.3911 602.334 57.3411 598.434 57.3411C594.434 57.3411 591.184 58.3911 588.684 60.4911C586.284 62.4911 585.084 65.5411 585.084 69.6411C585.084 73.7411 586.284 76.8411 588.684 78.9411C591.184 80.9411 594.384 81.9411 598.284 81.9411ZM610.584 57.9411L607.284 44.2911H638.484V55.2411L610.584 57.9411Z" fill="#090910"/>
<path d="M522.899 120.491C515.699 120.491 509.199 118.841 503.399 115.541C497.599 112.241 492.999 107.641 489.599 101.741C486.299 95.8411 484.649 89.0911 484.649 81.4911C484.649 73.7911 486.349 67.0411 489.749 61.2411C493.149 55.3411 497.749 50.7411 503.549 47.4411C509.349 44.1411 515.799 42.4911 522.899 42.4911C530.099 42.4911 536.599 44.1411 542.399 47.4411C548.199 50.7411 552.749 55.3411 556.049 61.2411C559.449 67.0411 561.149 73.7911 561.149 81.4911C561.149 89.1911 559.449 95.9911 556.049 101.891C552.649 107.691 548.049 112.241 542.249 115.541C536.549 118.841 530.099 120.491 522.899 120.491ZM522.749 103.391C526.049 103.391 528.999 102.591 531.599 100.991C534.299 99.3911 536.449 96.9911 538.049 93.7911C539.649 90.4911 540.449 86.3911 540.449 81.4911C540.449 76.5911 539.649 72.5411 538.049 69.3411C536.449 66.0411 534.299 63.5911 531.599 61.9911C528.999 60.3911 526.149 59.5911 523.049 59.5911C519.849 59.5911 516.899 60.3911 514.199 61.9911C511.499 63.5911 509.349 66.0411 507.749 69.3411C506.149 72.5411 505.349 76.5911 505.349 81.4911C505.349 86.3911 506.149 90.4911 507.749 93.7911C509.349 96.9911 511.449 99.3911 514.049 100.991C516.749 102.591 519.649 103.391 522.749 103.391Z" fill="#090910"/>
<path d="M461.458 118.691V13.6911H481.708V118.691H461.458Z" fill="#090910"/>
<path d="M410.254 120.491C400.554 120.491 392.204 118.191 385.204 113.591C378.204 108.991 372.804 102.641 369.004 94.5411C365.304 86.3411 363.454 76.8911 363.454 66.1911C363.454 55.4911 365.304 46.0911 369.004 37.9911C372.804 29.7911 378.154 23.3911 385.054 18.7911C392.054 14.1911 400.454 11.8911 410.254 11.8911C419.954 11.8911 428.254 14.1911 435.154 18.7911C442.154 23.3911 447.504 29.7911 451.204 37.9911C455.004 46.0911 456.904 55.4911 456.904 66.1911C456.904 76.8911 455.004 86.3411 451.204 94.5411C447.504 102.641 442.154 108.991 435.154 113.591C428.254 118.191 419.954 120.491 410.254 120.491ZM410.254 102.341C415.354 102.341 419.854 100.891 423.754 97.9911C427.754 94.9911 430.804 90.7911 432.904 85.3911C435.104 79.9911 436.204 73.5911 436.204 66.1911C436.204 58.6911 435.104 52.2911 432.904 46.9911C430.804 41.5911 427.754 37.4411 423.754 34.5411C419.854 31.6411 415.354 30.1911 410.254 30.1911C405.154 30.1911 400.604 31.6411 396.604 34.5411C392.704 37.4411 389.654 41.5911 387.454 46.9911C385.254 52.2911 384.154 58.6911 384.154 66.1911C384.154 73.5911 385.254 79.9911 387.454 85.3911C389.654 90.7911 392.704 94.9911 396.604 97.9911C400.604 100.891 405.154 102.341 410.254 102.341Z" fill="#090910"/>
<path d="M324.215 120.491C316.515 120.491 309.865 119.141 304.265 116.441C298.665 113.641 294.265 109.891 291.065 105.191C287.965 100.391 286.165 94.9911 285.665 88.9911H305.465C306.265 92.9911 308.365 96.3911 311.765 99.1911C315.165 101.891 319.315 103.241 324.215 103.241C327.815 103.241 330.965 102.341 333.665 100.541C336.465 98.7411 338.615 96.2911 340.115 93.1911C341.615 89.9911 342.365 86.4911 342.365 82.6911C342.365 78.5911 341.565 75.0911 339.965 72.1911C338.465 69.1911 336.365 66.9411 333.665 65.4411C330.965 63.8411 327.865 63.0411 324.365 63.0411C320.165 63.0411 316.465 64.0911 313.265 66.1911C310.065 68.2911 307.865 70.9411 306.665 74.1411H287.165L296.165 13.6911H354.815V31.3911H311.165L306.665 54.4911C308.865 52.1911 311.815 50.2911 315.515 48.7911C319.215 47.2911 323.365 46.5411 327.965 46.5411C333.665 46.5411 338.615 47.5411 342.815 49.5411C347.015 51.4411 350.515 54.0911 353.315 57.4911C356.215 60.8911 358.365 64.7411 359.765 69.0411C361.265 73.3411 362.015 77.7911 362.015 82.3911C362.015 87.9911 361.065 93.1411 359.165 97.8411C357.365 102.441 354.765 106.441 351.365 109.841C348.065 113.241 344.065 115.891 339.365 117.791C334.765 119.591 329.715 120.491 324.215 120.491Z" fill="#090910"/>
<path d="M247.65 120.491C240.85 120.491 234.6 119.241 228.9 116.741C223.2 114.241 218.65 110.441 215.25 105.341C211.85 100.241 210.05 93.7911 209.85 85.9911H229.65C229.75 89.2911 230.5 92.2911 231.9 94.9911C233.4 97.5911 235.45 99.6911 238.05 101.291C240.75 102.791 243.95 103.541 247.65 103.541C251.15 103.541 254.15 102.841 256.65 101.441C259.15 100.041 261.05 98.1911 262.35 95.8911C263.65 93.5911 264.3 90.9411 264.3 87.9411C264.3 84.3411 263.45 81.3911 261.75 79.0911C260.05 76.6911 257.65 74.8911 254.55 73.6911C251.55 72.3911 248.05 71.7411 244.05 71.7411H236.25V55.0911H244.05C248.95 55.0911 253.05 53.9911 256.35 51.7911C259.65 49.4911 261.3 46.0411 261.3 41.4411C261.3 37.7411 260.05 34.7411 257.55 32.4411C255.15 30.1411 251.8 28.9911 247.5 28.9911C242.8 28.9911 239.1 30.3911 236.4 33.1911C233.8 35.9911 232.35 39.4411 232.05 43.5411H212.4C212.7 36.9411 214.35 31.2911 217.35 26.5911C220.35 21.7911 224.4 18.1411 229.5 15.6411C234.7 13.1411 240.75 11.8911 247.65 11.8911C254.85 11.8911 260.95 13.1911 265.95 15.7911C270.95 18.2911 274.75 21.6911 277.35 25.9911C279.95 30.1911 281.25 34.8411 281.25 39.9411C281.25 43.9411 280.45 47.5411 278.85 50.7411C277.35 53.8411 275.3 56.4411 272.7 58.5411C270.2 60.6411 267.4 62.1911 264.3 63.1911C268.2 63.8911 271.6 65.3911 274.5 67.6911C277.5 69.9911 279.85 72.9411 281.55 76.5411C283.25 80.0411 284.1 84.0911 284.1 88.6911C284.1 94.3911 282.7 99.6911 279.9 104.591C277.1 109.391 273 113.241 267.6 116.141C262.2 119.041 255.55 120.491 247.65 120.491Z" fill="#090910"/>
<path d="M158.72 76.1901H104.42C102.414 76.1901 101.239 78.4676 102.389 80.1251L129.979 119.843C130.765 120.973 130.493 122.533 129.369 123.325L117.18 131.93C116.059 132.723 114.512 132.448 113.725 131.315L81.7408 85.2701C80.8058 83.9226 78.8566 83.8376 77.81 85.0976L53.9226 113.795C53.0422 114.853 51.4774 114.99 50.4283 114.103L39.0302 104.463C37.9812 103.575 37.8448 101.998 38.7252 100.94L55.9066 80.3001C57.2607 78.6726 56.1125 76.1926 54.007 76.1926H2.48C1.11104 76.1926 0 75.0726 0 73.6926V58.6926C0 57.3126 1.11104 56.1926 2.48 56.1926H56.7796C58.7859 56.1926 59.9614 53.9151 58.8107 52.2576L31.2207 12.5401C30.4346 11.4101 30.7074 9.85013 31.8308 9.05763L44.02 0.452634C45.141 -0.339866 46.6885 -0.0648684 47.4746 1.06763L79.4592 47.1126C80.3942 48.4601 82.3434 48.5451 83.39 47.2851L107.277 18.5876C108.158 17.5301 109.723 17.3926 110.772 18.2801L122.17 27.9201C123.219 28.8076 123.355 30.3851 122.475 31.4426L105.293 52.0826C103.939 53.7101 105.088 56.1901 107.193 56.1901H158.722C160.091 56.1901 161.202 57.3101 161.202 58.6901V73.6901C161.202 75.0701 160.091 76.1901 158.722 76.1901H158.72Z" fill="url(#paint0_linear_337_157)"/>
</g>
<defs>
<linearGradient id="paint0_linear_337_157" x1="0" y1="66.1914" x2="161.202" y2="66.1914" gradientUnits="userSpaceOnUse">
<stop stop-color="#00BC7D"/>
<stop offset="1" stop-color="#00BBA7"/>
</linearGradient>
<clipPath id="clip0_337_157">
<rect width="908.01" height="150.491" fill="white"/>
</clipPath>
</defs>
</svg>
